<svg id="Capa_1" enable-background="new 0 0 512.394 512.394" height="512" viewBox="0 0 512.394 512.394" width="512" xmlns="http://www.w3.org/2000/svg"><path d="m462.504 214.152h-412.615v-80.763c0-27.557 22.339-49.896 49.896-49.896h312.823c27.557 0 49.896 22.339 49.896 49.896z" fill="#d77f4a"/><path d="m462.507 133.387v80.76h-28.04v-82.36c0-22.48-14.57-41.55-34.78-48.29h12.92c27.56 0 49.9 22.33 49.9 49.89z" fill="#c86d36"/><path d="m441.612 428.901h-370.831c-12.198 0-22.086-9.888-22.086-22.086v-24.068h415.003v24.068c.001 12.197-9.888 22.086-22.086 22.086z" fill="#d77f4a"/><path d="m494.343 382.746h-476.293c-5.827 0-10.55-4.723-10.55-10.55v-67.546c0-5.827 4.723-10.55 10.55-10.55h476.293c5.827 0 10.55 4.723 10.55 10.55v67.546c.001 5.827-4.723 10.55-10.55 10.55z" fill="#fae2c0"/><path d="m31.527 346.177c0 9.021 9.632 14.876 17.577 10.603 12.517-6.731 18.018-19.321 38.597-19.321 28.087 0 28.087 23.453 56.173 23.453 28.083 0 28.083-23.453 56.166-23.453 28.084 0 28.084 23.453 56.167 23.453 28.082 0 28.082-23.453 56.165-23.453 28.082 0 28.082 23.453 56.164 23.453 28.084 0 28.084-23.453 56.167-23.453 20.573 0 26.075 12.587 38.587 19.319 7.945 4.274 17.577-1.581 17.577-10.603v-71.609c0-21.308-17.273-38.581-38.581-38.581h-372.178c-21.308 0-38.581 17.273-38.581 38.581z" fill="#d8ecfe"/><path d="m480.867 274.567v71.61c0 9.02-9.63 14.88-17.58 10.6-4.14-2.23-7.52-5.1-10.93-7.95 1.4-1.93 2.24-4.33 2.24-7v-71.61c0-14.89-8.43-27.8-20.77-34.23h8.46c21.31 0 38.58 17.27 38.58 38.58z" fill="#b3dafe"/><path d="m486.581 216.738c-21.776-11.232-45.922-17.093-70.424-17.093h-319.921c-24.502 0-48.648 5.861-70.423 17.093-12.591 6.495-16.09 22.886-7.249 33.956 6.91 8.652 19.097 10.972 28.702 5.465 10.874-6.234 23.19-9.514 35.724-9.514h346.415c12.534 0 24.85 3.28 35.723 9.514 9.606 5.507 21.792 3.187 28.702-5.465 8.841-11.07 5.342-27.461-7.249-33.956z" fill="#8ac9fe"/><path d="m241.947 199.662h-139.493v-28.229c0-12.487 10.123-22.611 22.611-22.611h94.272c12.487 0 22.611 10.123 22.611 22.611v28.229z" fill="#f9f3f1"/><path d="m409.939 199.662h-139.493v-28.229c0-12.487 10.123-22.611 22.611-22.611h94.272c12.487 0 22.611 10.123 22.611 22.611v28.229z" fill="#f9f3f1"/><path d="m241.947 171.437v28.22h-139.49v-16h109.351c5.229 0 9.469-4.239 9.469-9.469v-18.751c0-2.29-.34-4.51-.98-6.59 12.05.51 21.65 10.42 21.65 22.59z" fill="#f3eae6"/><path d="m409.937 171.437v28.22h-139.49v-16h109.361c5.229 0 9.469-4.239 9.469-9.469v-18.751c0-2.29-.34-4.5-.98-6.58 12.04.5 21.64 10.42 21.64 22.58z" fill="#f3eae6"/><path d="m504.894 318.987c4.142 0 7.5-3.358 7.5-7.5v-6.838c0-9.953-8.097-18.05-18.05-18.05h-5.977v-12.033c0-3.426-.386-6.762-1.101-9.976 4.726-1.869 9.032-4.968 12.425-9.216 5.622-7.04 7.768-16.129 5.887-24.94-1.88-8.811-7.551-16.232-15.558-20.363h-.001c-6.464-3.334-13.161-6.205-20.015-8.63v-68.053c0-31.648-25.748-57.396-57.396-57.396h-160.911c-4.142 0-7.5 3.358-7.5 7.5s3.358 7.5 7.5 7.5h160.912c23.377 0 42.396 19.019 42.396 42.396v63.541c-12.278-3.05-24.91-4.662-37.565-4.765v-20.732c0-16.603-13.507-30.11-30.11-30.11h-94.272c-16.603 0-30.11 13.507-30.11 30.11v20.712h-13.499v-20.712c0-16.603-13.507-30.11-30.11-30.11h-94.272c-16.603 0-30.11 13.507-30.11 30.11v20.732c-12.655.103-25.287 1.715-37.565 4.765v-63.541c0-23.377 19.019-42.396 42.396-42.396h117.412c4.142 0 7.5-3.358 7.5-7.5s-3.358-7.5-7.5-7.5h-117.415c-31.648 0-57.396 25.748-57.396 57.396v68.053c-6.854 2.425-13.551 5.296-20.016 8.63-8.006 4.13-13.677 11.552-15.558 20.363s.265 17.9 5.887 24.94c3.396 4.252 7.708 7.352 12.439 9.22-.716 3.214-1.115 6.545-1.115 9.972v12.034h-5.976c-9.953 0-18.05 8.097-18.05 18.049v67.547c0 9.953 8.097 18.05 18.05 18.05h23.145v16.568c0 16.314 13.272 29.586 29.586 29.586h15.666c4.142 0 7.5-3.358 7.5-7.5s-3.358-7.5-7.5-7.5h-15.666c-8.043 0-14.586-6.543-14.586-14.586v-16.568h400.004v16.568c0 8.043-6.543 14.586-14.586 14.586h-320.416c-4.142 0-7.5 3.358-7.5 7.5s3.358 7.5 7.5 7.5h320.416c16.314 0 29.586-13.272 29.586-29.586v-16.568h23.145c9.953 0 18.05-8.097 18.05-18.05v-26.959c0-4.142-3.358-7.5-7.5-7.5s-7.5 3.358-7.5 7.5v26.959c0 1.682-1.368 3.05-3.05 3.05h-476.294c-1.682 0-3.05-1.368-3.05-3.05v-67.547c0-1.682 1.368-3.05 3.05-3.05h5.977v44.578c0 6.932 3.558 13.196 9.517 16.758 5.916 3.535 13.061 3.705 19.111.451 4.646-2.498 8.266-5.521 11.766-8.443 6.68-5.578 11.956-9.983 23.28-9.983s16.6 4.406 23.279 9.983c7.561 6.313 16.131 13.469 32.894 13.469 16.761 0 25.33-7.156 32.89-13.47 6.679-5.578 11.954-9.983 23.275-9.983s16.597 4.405 23.276 9.983c7.561 6.313 16.13 13.47 32.892 13.47 16.761 0 25.33-7.156 32.89-13.47 6.678-5.578 11.954-9.983 23.275-9.983s16.596 4.405 23.274 9.983c7.56 6.313 16.129 13.47 32.89 13.47 16.762 0 25.331-7.156 32.891-13.47 6.679-5.578 11.954-9.983 23.276-9.983 11.321 0 16.597 4.405 23.275 9.983 3.499 2.922 7.116 5.943 11.759 8.441 6.05 3.255 13.195 3.087 19.112-.449 5.96-3.562 9.518-9.826 9.518-16.759v-44.575h5.977c1.682 0 3.05 1.368 3.05 3.05v6.838c0 4.141 3.357 7.499 7.5 7.499zm-226.948-147.554c0-8.332 6.778-15.11 15.11-15.11h94.272c8.332 0 15.11 6.778 15.11 15.11v20.712h-124.492zm-167.991 0c0-8.332 6.778-15.11 15.11-15.11h94.272c8.332 0 15.11 6.778 15.11 15.11v20.712h-124.492zm363.412 174.743c0 2.311-1.547 3.485-2.212 3.883-.645.386-2.355 1.168-4.312.115-3.303-1.776-6.192-4.189-9.25-6.744-7.56-6.313-16.129-13.47-32.89-13.47-16.762 0-25.331 7.156-32.891 13.47-6.679 5.578-11.954 9.983-23.276 9.983-11.321 0-16.596-4.405-23.274-9.983-7.56-6.313-16.129-13.47-32.89-13.47s-25.33 7.156-32.89 13.47c-6.678 5.578-11.953 9.983-23.274 9.983-11.322 0-16.598-4.406-23.277-9.983-7.56-6.314-16.129-13.47-32.891-13.47-16.761 0-25.33 7.156-32.891 13.47-6.678 5.578-11.954 9.983-23.275 9.983-11.324 0-16.6-4.406-23.28-9.983-7.561-6.313-16.131-13.469-32.894-13.469s-25.333 7.156-32.894 13.469c-3.061 2.555-5.951 4.969-9.256 6.746-1.956 1.053-3.667.27-4.312-.115-.665-.397-2.212-1.572-2.212-3.882v-71.61c0-2.831.385-5.572 1.1-8.179 3.724-.517 7.412-1.74 10.87-3.723 9.723-5.574 20.786-8.521 31.993-8.521h346.415c11.207 0 22.27 2.946 31.993 8.521 3.457 1.982 7.143 3.206 10.867 3.723.713 2.608 1.103 5.348 1.103 8.179zm-4.509-96.523c-11.991-6.875-25.633-10.508-39.454-10.508h-346.414c-13.821 0-27.463 3.633-39.454 10.508-6.44 3.693-14.478 2.162-19.112-3.639-2.806-3.513-3.877-8.05-2.938-12.447s3.769-8.102 7.765-10.163c20.621-10.636 43.784-16.258 66.985-16.258h5.89c.11.005.218.017.329.017h139.493c.111 0 .219-.012.329-.017h27.841c.11.005.218.017.329.017h139.493c.111 0 .219-.012.329-.017h5.89c23.201 0 46.365 5.622 66.985 16.258 3.996 2.061 6.826 5.766 7.765 10.163.938 4.397-.132 8.934-2.938 12.447-4.634 5.801-12.673 7.331-19.113 3.639z"/></svg>