<svg id="Capa_1" enable-background="new 0 0 511 511" height="450" viewBox="0 0 511 511" width="450" xmlns="http://www.w3.org/2000/svg"><path d="m39.5 7.5h432v496h-432z" fill="#edf0ef"/><path d="m39.5 7.5h56v496h-56z" fill="#cad1cf"/><path d="m39.5 7.5h432v112h-432z" fill="#ffe76e"/><path d="m39.5 7.5h56v112h-56z" fill="#ffd70d"/><circle cx="255.5" cy="311.5" fill="#a6b2af" r="144"/><circle cx="255.5" cy="311.5" fill="#18bade" r="112"/><path d="m287.5 391.5c-61.856 0-112-50.144-112-112 0-22.744 6.786-43.899 18.434-61.566-30.381 20.031-50.434 54.454-50.434 93.566 0 61.856 50.144 112 112 112 39.112 0 73.535-20.053 93.566-50.434-17.667 11.648-38.822 18.434-61.566 18.434z" fill="#1d9dba"/><path d="m183.5 335.5h-72c-13.255 0-24-10.745-24-24 0-13.255 10.745-24 24-24h72z" fill="#718580"/><path d="m119.5 311.5c-11.343 0-20.842-7.872-23.348-18.449-5.286 4.402-8.652 11.032-8.652 18.449 0 13.255 10.745 24 24 24h72v-24z" fill="#4e6660"/><circle cx="255.5" cy="63.5" fill="#718580" r="24"/><path d="m71.5 39.5h112v48h-112z" fill="#75d5eb"/><path d="m71.5 39.5h24v48h-24z" fill="#18bade"/><path d="m423.5 471.5h-32c-8.837 0-16-7.163-16-16 0-8.837 7.163-16 16-16h32c8.837 0 16 7.163 16 16 0 8.837-7.163 16-16 16z" fill="#cad1cf"/><path d="m471.5 0h-432c-4.143 0-7.5 3.358-7.5 7.5v496c0 4.142 3.357 7.5 7.5 7.5h432c4.143 0 7.5-3.358 7.5-7.5v-212.449c0-4.142-3.357-7.5-7.5-7.5s-7.5 3.358-7.5 7.5v204.949h-417v-369h417v128.5c0 4.142 3.357 7.5 7.5 7.5s7.5-3.358 7.5-7.5v-248c0-4.142-3.357-7.5-7.5-7.5zm-424.5 112v-97h417v97z"/><path d="m255.5 160c-71.818 0-133.661 50.397-148.281 120.299-15.35 2.096-27.219 15.284-27.219 31.201s11.869 29.106 27.22 31.201c14.619 69.924 76.406 120.299 148.28 120.299 83.537 0 151.5-67.962 151.5-151.5s-67.963-151.5-151.5-151.5zm-160.5 151.5c0-9.098 7.402-16.5 16.5-16.5h64.5v33h-64.5c-9.098 0-16.5-7.402-16.5-16.5zm88.5-31.5h-27.651c13.616-43.28 53.719-73 99.651-73 57.621 0 104.5 46.878 104.5 104.5s-46.879 104.5-104.5 104.5c-45.805 0-86.034-29.761-99.657-73h27.657c4.143 0 7.5-3.358 7.5-7.5v-48c0-4.142-3.357-7.5-7.5-7.5zm72 168c-63.597 0-118.424-43.768-132.847-105h17.567c14.137 51.881 61.325 88 115.28 88 65.893 0 119.5-53.607 119.5-119.5s-53.607-119.5-119.5-119.5c-54.104 0-101.136 36.066-115.275 88h-17.573c14.424-61.214 69.301-105 132.848-105 75.267 0 136.5 61.234 136.5 136.5s-61.233 136.5-136.5 136.5z"/><path d="m255.5 32c-17.369 0-31.5 14.131-31.5 31.5s14.131 31.5 31.5 31.5 31.5-14.131 31.5-31.5-14.131-31.5-31.5-31.5zm0 48c-9.098 0-16.5-7.402-16.5-16.5s7.402-16.5 16.5-16.5 16.5 7.402 16.5 16.5-7.402 16.5-16.5 16.5z"/><path d="m351.5 56h-8c-4.143 0-7.5 3.358-7.5 7.5s3.357 7.5 7.5 7.5h8c4.143 0 7.5-3.358 7.5-7.5s-3.357-7.5-7.5-7.5z"/><path d="m391.5 56h-8c-4.143 0-7.5 3.358-7.5 7.5s3.357 7.5 7.5 7.5h8c4.143 0 7.5-3.358 7.5-7.5s-3.357-7.5-7.5-7.5z"/><path d="m431.5 56h-8c-4.143 0-7.5 3.358-7.5 7.5s3.357 7.5 7.5 7.5h8c4.143 0 7.5-3.358 7.5-7.5s-3.357-7.5-7.5-7.5z"/><path d="m183.5 32h-112c-4.143 0-7.5 3.358-7.5 7.5v48c0 4.142 3.357 7.5 7.5 7.5h112c4.143 0 7.5-3.358 7.5-7.5v-48c0-4.142-3.357-7.5-7.5-7.5zm-7.5 48h-97v-33h97z"/><path d="m391.5 479h32c12.958 0 23.5-10.542 23.5-23.5s-10.542-23.5-23.5-23.5h-32c-12.958 0-23.5 10.542-23.5 23.5s10.542 23.5 23.5 23.5zm0-32h32c4.687 0 8.5 3.813 8.5 8.5s-3.813 8.5-8.5 8.5h-32c-4.687 0-8.5-3.813-8.5-8.5s3.813-8.5 8.5-8.5z"/></svg>